# xmcd CD database file
#
# Track frame offsets:
#	150
#	23355
#	45745
#	66842
#	90016
#	109867
#	128256
#	147545
#	169731
#	186743
#	205603
#	223681
#	238395
#	259235
#	287119
#	316595
#	334220
#
# Disc length: 4673 seconds
#
# Revision: 0
# Processed by: cddbd v1.5.1PL0 Copyright (c) Steve Scherf et al.
# Submitted via: CDex 1.51
#
DISCID=f7123f11
DTITLE=salseros de coyuca - lo mejor de la salsa
DYEAR=2004
DGENRE=salsa
TTITLE0=y que me pasa
TTITLE1=pagina de amor
TTITLE2=la persona ideal
TTITLE3=si no la tengo
TTITLE4=a puro dolor
TTITLE5=anhelos
TTITLE6=verdades
TTITLE7=a pesar del tiempo
TTITLE8=la cita
TTITLE9=los colores del amor
TTITLE10=mi media mitad
TTITLE11=no se como te quiero
TTITLE12=ay valeria
TTITLE13=nunca te diré adios
TTITLE14=que viva chago
TTITLE15=yo no soy guapo
TTITLE16=como un angel
EXTD=YEAR: 2004
EXTT0=
EXTT1=
EXTT2=
EXTT3=
EXTT4=
EXTT5=
EXTT6=
EXTT7=
EXTT8=
EXTT9=
EXTT10=
EXTT11=
EXTT12=
EXTT13=
EXTT14=
EXTT15=
EXTT16=
PLAYORDER=
